<svg width="472" height="472" viewBox="0 0 472 472" fill="none" xmlns="http://www.w3.org/2000/svg">
<rect x="59" y="59" width="59" height="59" fill="#F7F5F4"/>
<rect x="118" y="118" width="59" height="59" fill="#F7F5F4"/>
<rect x="177" y="177" width="59" height="59" fill="#F7F5F4"/>
<rect x="236" y="236" width="59" height="59" fill="#F7F5F4"/>
<rect x="295" y="295" width="59" height="59" fill="#F7F5F4"/>
<rect x="354" y="354" width="59" height="59" fill="#F7F5F4"/>
<rect x="413" y="413" width="59" height="59" fill="#F7F5F4"/>
<rect x="59" y="177" width="59" height="59" fill="#F7F5F4"/>
<rect x="118" y="236" width="59" height="59" fill="#F7F5F4"/>
<rect x="177" y="295" width="59" height="59" fill="#F7F5F4"/>
<rect x="59" y="295" width="59" height="59" fill="#F7F5F4"/>
<rect x="118" y="354" width="59" height="59" fill="#F7F5F4"/>
<rect x="59" y="413" width="59" height="59" fill="#F7F5F4"/>
<rect width="59" height="59" fill="#F7F5F4"/>
<rect y="118" width="59" height="59" fill="#F7F5F4"/>
<rect y="236" width="59" height="59" fill="#F7F5F4"/>
<rect y="354" width="59" height="59" fill="#F7F5F4"/>
<rect x="177" y="413" width="59" height="59" fill="#F7F5F4"/>
<rect x="236" y="354" width="59" height="59" fill="#F7F5F4"/>
<rect x="295" y="413" width="59" height="59" fill="#F7F5F4"/>
</svg>
