<svg width="90" height="32" viewBox="0 0 90 32" fill="none" xmlns="http://www.w3.org/2000/svg">
  <path d="M16 8C11.6 8 8 11.6 8 16C8 20.4 11.6 24 16 24C19.2 24 22 22.2 23 19.5H16V16H26C26.1 16.5 26.2 17 26.2 17.5C26.2 22.5 22.5 26 16 26C10.5 26 6 21.5 6 16C6 10.5 10.5 6 16 6C18.8 6 21.2 7.2 23 9L20.5 11.5C19.2 10.2 17.5 9.5 16 9.5C12.4 9.5 9.5 12.4 9.5 16C9.5 19.6 12.4 22.5 16 22.5C19 22.5 21.5 20.5 22 17.5H16V15H24V17.5C24 21.6 20.4 25 16 25C11 25 7 21 7 16C7 11 11 7 16 7C18.5 7 20.8 8 22.5 9.5L20 12C18.8 10.8 17.5 10 16 10C13.2 10 11 12.2 11 15C11 17.8 13.2 20 16 20C18.3 20 20.2 18.5 20.8 16.5H16V14H22V16.5C22 19.5 19.5 22 16 22C12.7 22 10 19.3 10 16C10 12.7 12.7 10 16 10C17.7 10 19.2 10.7 20.3 11.8L22.8 9.3C21 7.5 18.6 6.5 16 6.5C11.3 6.5 7.5 10.3 7.5 15C7.5 19.7 11.3 23.5 16 23.5C20.2 23.5 23.5 20.5 23.5 16.5C23.5 16 23.4 15.5 23.3 15H16V17H21C20.5 19 18.5 20.5 16 20.5C13.5 20.5 11.5 18.5 11.5 16C11.5 13.5 13.5 11.5 16 11.5C17.3 11.5 18.5 12 19.3 13L21.8 10.5C20.3 9 18.2 8 16 8Z" fill="white"/>
  <text x="32" y="20" font-family="Arial, sans-serif" font-size="14" font-weight="700" fill="white">Google</text>
</svg>
